# xmcd
#
# Track frame offsets:
#	150
#	17530
#	32008
#	58225
#	75074
#	94489
#	113551
#	129056
#	146922
#	165214
#	187648
#
# Disc length: 2720 seconds
#
# Revision: 1
# Processed by: cddbd v1.5.1PL0 Copyright (c) Steve Scherf et al.
# Submitted via: audiograbber 1.83.01
#
DISCID=760a9e0b
DTITLE=Volker Klenner and his Boston Bluesfriends - The way I found the Blues
DYEAR=2000
DGENRE=Blues
TTITLE0=Gimme some wheat-beer
TTITLE1=Workin' for the weekend
TTITLE2=The way I found the Blues
TTITLE3=Waiting for the train
TTITLE4=Remembering Curtis
TTITLE5=Tell me why
TTITLE6=Ocean breeze
TTITLE7=Sittin' at the river
TTITLE8=Party time
TTITLE9=Your soul will live on
TTITLE10=Addicted to the G.A.S.
EXTD=
EXTT0=
EXTT1=
EXTT2=
EXTT3=
EXTT4=
EXTT5=
EXTT6=
EXTT7=
EXTT8=
EXTT9=
EXTT10=
PLAYORDER=
